<svg xmlns="http://www.w3.org/2000/svg" viewBox="0 0 65 60"><path d="M37.902 21.12l-1.34 21.512h-5.357l-1.34-21.511zm-1.037 26.055c.774.796 1.166 1.801 1.166 2.988 0 1.19-.4 2.21-1.19 3.034-.785.828-1.78 1.248-2.958 1.248-1.176 0-2.172-.42-2.96-1.248-.787-.825-1.187-1.846-1.187-3.034 0-1.187.393-2.192 1.167-2.988.774-.798 1.777-1.202 2.98-1.202 1.204 0 2.207.404 2.982 1.202zM64.861 59.51a.992.992 0 0 0 .018-.99L33.38.523A.987.987 0 0 0 32.501 0a.986.986 0 0 0-.878.522l-31.5 58a.993.993 0 0 0 .02.99A.991.991 0 0 0 1 60h63a.992.992 0 0 0 .86-.49z"/></svg>
