<svg xmlns="http://www.w3.org/2000/svg" viewBox="0 0 60 60"><path d="M2.121 30L30 2.121 57.879 30 30 57.879zM30 0L0 30l30 30 30-30z"/><path  d="M33.84 37.234c2.926-.426 4.95-1.275 5.766-2.37l.395.395v1.982l-1.25 1.25v2.759c0 1.02-3.409 2.5-8.75 2.5-5.342 0-8.75-1.48-8.75-2.5v-2.759L20 37.241V35.26l.394-.395c.812 1.093 2.842 1.944 5.765 2.37l.18-1.238c-3.305-.481-5.09-1.516-5.09-2.246v-4.634L20 27.866v-1.982l.395-.395c.812 1.093 2.842 1.944 5.765 2.37l.18-1.238c-3.305-.481-5.09-1.516-5.09-2.246v-3.716c1.8 1.213 5.287 1.84 8.75 1.84 3.464 0 6.952-.628 8.751-1.84v3.716c0 .73-1.783 1.765-5.09 2.246l.18 1.238c2.926-.426 4.95-1.275 5.766-2.37l.394.395v1.982l-1.25 1.25v4.634c0 .73-1.784 1.765-5.091 2.246zM35.609 20.5a1.11 1.11 0 0 1-.184.15 24.861 24.861 0 0 1-10.85 0 1.111 1.111 0 0 1-.184-.15c.283-.413 2.348-1.125 5.61-1.125 3.26 0 5.324.711 5.608 1.125zM30 16.25c5.341 0 8.75 1.48 8.75 2.5 0 .455-.685 1.003-1.917 1.47-.414-1.643-4.414-2.095-6.833-2.095-2.419 0-6.42.45-6.834 2.094-1.231-.466-1.916-1.014-1.916-1.469 0-1.02 3.409-2.5 8.75-2.5zm11.25 12.134v-3.018L40 24.116V18.75C40 16.288 34.97 15 30 15s-10 1.288-10 3.75v5.366l-1.25 1.25v3.018l1.25 1.25v3.857l-1.25 1.25v3.018l1.25 1.25v2.241C20 43.712 25.03 45 30 45c4.971 0 10.001-1.288 10.001-3.75v-2.241l1.249-1.25V34.74L40 33.491v-3.857z"/></svg>
