<svg xmlns="http://www.w3.org/2000/svg" viewBox="0 0 60 60"><path d="M2.121 30L30 2.121l27.879 27.88L30 57.878zM30 0L0 30l30 30 30-30z"/><path  d="M36.981 40h-2.539a.625.625 0 0 0 0 1.25h2.276l-1.641 1.616v.884H24.923v-.881l-1.64-1.619h6.082a.626.626 0 0 0 0-1.25H23.02V22.5h6.346a.626.626 0 0 0 0-1.25h-6.083l1.641-1.619v-.88h10.154v.883l1.64 1.616h-2.275a.625.625 0 0 0 0 1.25h2.539zM26.827 16.875a.634.634 0 1 1 1.269 0v.625h-1.27zm9.52 2.241V17.5h-6.982v-.625a1.904 1.904 0 0 0-3.807 0v.625h-1.904v1.614l-1.903 1.875v20.518l1.903 1.875V45h12.692v-1.616l1.904-1.875V20.99z"/></svg>
