<svg xmlns="http://www.w3.org/2000/svg" viewBox="0 0 30 30"><path d="M11.16 17.654H26.3c.87 0 1.614-.646 1.764-1.53l1.921-11.395c.096-.568-.327-1.088-.886-1.088H8.882L8.383.966A1.163 1.163 0 007.25 0H1.154C.517 0 0 .533 0 1.191s.517 1.19 1.154 1.19h5.143l.235 1.26h-.099l2.438 13.504-.869 2.242a3.09 3.09 0 00.293 2.806 2.89 2.89 0 002.415 1.323h16.378c.638 0 1.154-.534 1.154-1.191 0-.658-.516-1.191-1.154-1.191H10.71a.591.591 0 01-.504-.276.629.629 0 01-.061-.586zM11.88 24.925c-1.357 0-2.458 1.136-2.458 2.538 0 1.401 1.101 2.537 2.459 2.537 1.357 0 2.458-1.136 2.458-2.537 0-1.402-1.1-2.538-2.458-2.538zM24.723 24.925c-1.358 0-2.459 1.136-2.459 2.538 0 1.401 1.101 2.537 2.459 2.537 1.357 0 2.458-1.136 2.458-2.537 0-1.402-1.1-2.538-2.458-2.538z"/></svg>
