<svg xmlns="http://www.w3.org/2000/svg" viewBox="0 0 57 60"><path d="M41.035 23.494a15.565 15.565 0 0 1 1.51 6.719c0 1.266 1.002 2.294 2.24 2.294h.001c1.237 0 2.24-1.025 2.242-2.291a20.21 20.21 0 0 0-1.958-8.72c-1.613-3.409-4.119-6.264-7.247-8.258a19.3 19.3 0 0 0-10.117-3.036c-1.238-.011-2.254.996-2.27 2.262-.017 1.266.974 2.306 2.211 2.322 5.754.078 10.884 3.414 13.388 8.708z"/><path d="M54.044 17.052C51.6 11.885 47.797 7.562 43.05 4.55A29.13 29.13 0 0 0 27.696 0h-.02c-1.229 0-2.23 1.013-2.24 2.272-.011 1.267.984 2.302 2.221 2.313 9.606.084 18.171 5.627 22.353 14.465a25.863 25.863 0 0 1 2.508 11.162c-.001 1.267 1.001 2.294 2.24 2.295 1.238 0 2.241-1.026 2.242-2.291a30.496 30.496 0 0 0-2.956-13.164z"/><path d="M46.493 40.828a4.183 4.183 0 0 0-3.08-1.37c-.855 0-1.678.262-2.383.757l-4.76 3.13c-.958-.412-4.192-2.254-11.434-10.194-7.285-7.988-8.83-11.383-9.153-12.37l3.386-4.646c1.286-1.658 1.193-4.069-.22-5.617l-7.422-8.14A4.286 4.286 0 0 0 8.229.956c-1.323 0-2.56.602-3.395 1.652L2.765 5.21C.907 7.45-.023 10.226 0 13.46c.021 2.844.784 6.059 2.267 9.555 2.495 5.88 7.135 12.7 13.067 19.204 3.119 3.42 8.02 8.305 13.666 12.162C34.457 58.109 39.33 60 43.483 60c2.7 0 5.083-.807 7.083-2.398l2.669-1.922a4.493 4.493 0 0 0 1.833-3.198 4.537 4.537 0 0 0-1.152-3.515z"/></svg>
