<svg xmlns="http://www.w3.org/2000/svg" viewBox="0 0 38 60"><path d="M19.03 24.57a5.576 5.576 0 0 1-5.576-5.574 5.576 5.576 0 0 1 11.152 0 5.574 5.574 0 0 1-5.575 5.574zm18.91-7.022c0-.019 0-.025-.001-.014C37.193 7.726 29.015 0 19.03 0 8.734 0 .357 8.219.073 18.464c-.023.042-.048.09-.073.146 0 .541.044 1.096.107 1.658a18.9 18.9 0 0 0 2.787 8.716c5.31 10.948 16.07 21.875 16.07 21.875s10.247-10.384 15.675-21.07a18.927 18.927 0 0 0 3.36-10.793c0-.487-.023-.969-.06-1.448z"/><path d="M19.037 56.168c-3.187 0-5.77.857-5.77 1.915 0 1.059 2.583 1.917 5.77 1.917 3.186 0 5.769-.858 5.769-1.917 0-1.058-2.583-1.915-5.77-1.915z"/></svg>
