<svg xmlns="http://www.w3.org/2000/svg" viewBox="0 0 60 60"><path d="M39.304 44.838c.05.081.107.156.176.238.799.922 11.888 13.196 13.142 14.45 1.254 1.254 4.216-.232 5.447-1.553 1.23-1.321 2.71-4.097 1.455-5.352-1.255-1.254-13.525-12.336-14.45-13.14a1.68 1.68 0 0 0-.31-.219c-.095.753-.612 1.863-2.167 3.418-1.462 1.462-2.534 2.013-3.293 2.158z"/><path  d="M23.013 3.474v.571-.571zm13.38 6.102c3.568 3.57 5.533 8.323 5.533 13.383 0 5.06-1.964 9.812-5.533 13.378-3.568 3.567-8.32 5.53-13.38 5.53-5.036 0-9.767-1.944-13.329-5.478l-.052-.052c-7.375-7.38-7.375-19.386 0-26.76 3.568-3.567 8.32-5.532 13.38-5.532 5.061 0 9.813 1.964 13.38 5.53zm2.723-2.864c-8.95-8.95-23.457-8.95-32.406 0-8.947 8.95-8.947 23.457 0 32.406 7.517 7.514 18.95 8.718 27.724 3.612.314.289 1.248.96 2.832.484.934-.283 2.094-.96 3.49-2.352 1.392-1.399 2.066-2.553 2.342-3.481.445-1.505-.166-2.415-.483-2.76 5.237-8.793 4.07-20.339-3.5-27.909z"/></svg>
