<svg xmlns="http://www.w3.org/2000/svg" viewBox="0 0 15 17"><path d="M10.446 1.063l-.314-.621A.88.88 0 009.412 0h-3.83a.869.869 0 00-.714.442l-.314.62H.536A.534.534 0 000 1.595v1.062c0 .294.24.532.536.532h13.928A.534.534 0 0015 2.656V1.594a.534.534 0 00-.536-.531zM3.75 6.906c0-.293.24-.531.536-.531.295 0 .535.238.535.531v7.438c0 .293-.24.531-.535.531a.534.534 0 01-.536-.531zm3.214 0c0-.293.24-.531.536-.531.296 0 .536.238.536.531v7.438c0 .293-.24.531-.536.531a.534.534 0 01-.536-.531zm3.215 0c0-.293.24-.531.535-.531.296 0 .536.238.536.531v7.438c0 .293-.24.531-.536.531a.534.534 0 01-.535-.531zm-9.108 8.5c0 .88.72 1.594 1.608 1.594h9.642c.888 0 1.608-.714 1.608-1.594V4.25H1.07z"/></svg>
